<svg width="170" height="201" viewBox="0 0 170 201" fill="none" xmlns="http://www.w3.org/2000/svg">
<path fill-rule="evenodd" clip-rule="evenodd" d="M73.0924 7.67609C73.4065 1.93478 77.6539 -1.0449 83.5524 0.553967C85.9907 1.20806 87.5638 2.6615 88.2718 4.91446C89.0588 7.53075 88.8228 10.147 87.4857 12.5453C86.0696 15.0162 83.8674 16.5424 80.7212 16.4697C77.6539 16.397 75.5306 14.7255 74.4295 12.1819C73.9159 11.1273 73.6502 9.99619 73.3938 8.89956C73.2962 8.48478 73.2002 8.07494 73.0924 7.67609ZM13.7106 149.828C13.7106 149.683 13.7106 149.246 13.7892 148.883C14.2611 147.647 14.4185 146.34 14.4185 144.958C14.4185 143.215 16.0701 141.906 18.0364 141.833C18.9016 141.833 19.8453 141.979 20.5532 142.269C23.0701 143.36 25.4296 144.74 27.2386 146.703C30.9352 150.555 29.2835 156.877 24.0925 158.694C21.3398 159.712 18.4296 158.984 16.3847 156.877C14.8903 155.278 13.7106 152.371 13.7106 149.828ZM45.7217 187.619C44.4632 188.781 43.9913 190.235 43.9913 191.18C43.9913 195.104 45.9576 198.374 48.789 199.901C52.3286 201.79 56.3399 200.773 58.3061 197.43C61.1374 192.633 57.8341 186.019 52.0926 184.857C49.8901 184.421 48.0025 184.857 46.5868 186.674C46.3508 187.037 46.0362 187.328 45.7217 187.619ZM159.687 134.856C159.609 135.196 159.547 135.543 159.486 135.89C159.364 136.585 159.241 137.279 158.979 137.909C157.249 142.196 151.822 143.287 148.283 140.017C146.474 138.417 145.766 136.311 145.452 134.057C145.373 133.403 145.216 132.676 144.98 132.022C143.879 129.406 144.98 127.153 147.89 126.281C151.507 125.118 156.305 126.79 158.193 129.842C159.137 131.368 159.609 133.04 159.687 134.856ZM0.274899 42.4776C0.24111 42.644 0.210548 42.794 0.182617 42.9233C0.261231 45.9756 0.811779 48.1559 2.46351 49.9C4.19377 51.7896 6.47467 52.6616 9.1488 52.2256C11.8229 51.7896 13.5533 50.1907 14.4185 47.7925C15.9915 43.5047 13.4747 38.3448 8.51964 37.3273C8.36233 37.2789 8.20502 37.2385 8.04771 37.1982C7.73308 37.1174 7.41846 37.0367 7.10392 36.8913C4.90164 36.0192 2.14889 36.8913 1.04779 39.5076C0.659817 40.5831 0.431277 41.7077 0.274899 42.4776ZM134.991 167.56C134.991 170.54 133.339 172.866 130.665 173.665C128.226 174.464 125.71 173.738 123.901 171.775C121.856 169.45 120.991 166.761 121.07 163.854C121.148 161.746 122.407 160.002 123.744 158.403C124.609 157.386 125.946 157.095 127.361 157.313C128.148 157.459 128.934 157.749 129.563 158.185C132.396 159.93 134.991 164.363 134.991 167.56ZM0.811865 94.7402V95.4673C0.890478 98.7374 1.99158 101.644 5.13765 103.534C7.26123 104.842 9.54213 105.132 11.9016 104.043C14.1825 102.953 15.205 101.063 15.2836 98.8103C15.4409 94.9583 13.3174 92.1243 9.85675 90.0889C9.54213 89.8708 9.2275 89.7257 8.83427 89.6528C4.82302 88.4903 1.04779 90.8882 0.811865 94.7402ZM105.653 170.177C105.776 170.431 105.874 170.696 105.973 170.96C106.126 171.374 106.278 171.783 106.519 172.138C107.62 173.81 108.486 175.481 108.564 177.517C108.643 179.697 107.777 181.368 105.653 182.385C103.53 183.404 101.485 183.04 99.6759 181.732C97.5526 180.279 96.5305 178.171 96.0585 175.772C95.8488 174.706 95.7087 173.64 95.5686 172.575V172.574C95.499 172.041 95.4294 171.509 95.3504 170.976C95.1934 169.959 95.4294 168.868 96.2945 168.287L96.4252 168.199C97.8022 167.28 99.2531 166.311 100.777 165.889C103.687 165.089 106.361 167.415 105.653 170.177ZM104.238 121.412C102.115 123.592 100.856 126.136 100.935 128.606C100.856 131.15 101.249 132.749 102.036 134.057C103.294 136.02 105.496 136.964 107.777 136.674C110.609 136.311 113.204 134.13 113.755 131.513C114.384 128.534 113.598 125.845 111.631 123.447C111.396 123.157 111.18 122.885 110.964 122.613L110.963 122.611L110.961 122.609C110.745 122.337 110.53 122.065 110.295 121.775C108.722 119.668 106.125 119.523 104.238 121.412ZM52.5646 158.912C57.6762 158.112 61.8454 163.636 60.5864 168.214C59.5643 171.92 55.5529 173.738 51.7777 172.211C48.0025 170.685 45.5643 166.034 46.7441 162.327C47.2946 160.293 49.1823 158.33 52.5646 158.912ZM158.665 95.6124C157.328 97.575 156.62 99.7547 156.699 102.08C156.699 103.825 157.092 105.423 158.036 106.877C159.451 109.057 161.732 110.147 164.17 109.784C166.53 109.494 168.496 107.749 168.89 105.205C169.597 101.208 168.024 97.7201 165.193 94.8132C163.226 92.7777 160.238 93.2868 158.665 95.6124ZM37.2312 120.741C37.3852 121.156 37.5374 121.565 37.7778 121.92C38.9576 123.81 39.5082 125.772 39.1149 127.952C38.8003 129.842 37.6992 131.295 35.6542 131.877C33.5306 132.531 31.7217 131.877 30.2273 130.424C28.8902 129.042 28.1824 127.371 27.7104 125.627C27.4745 124.755 27.1599 123.883 26.688 123.084C25.6655 121.048 26.2161 119.159 28.1824 117.923C28.5756 117.705 28.9492 117.451 29.3228 117.197C29.6964 116.943 30.07 116.688 30.4633 116.47C31.9576 115.598 33.5306 115.452 35.1037 116.252C36.5981 117.052 37.2273 118.287 36.9126 119.959C37.0349 120.213 37.1334 120.478 37.2312 120.741ZM125.238 15.5977C127.361 14.5802 128.148 12.836 128.226 10.9465C128.305 7.7488 125.946 4.11503 122.879 1.93478C119.732 -0.318102 115.8 1.13534 115.328 4.84175C115.092 6.51333 115.171 8.33018 115.485 10.0017C115.878 12.1092 117.058 13.9261 119.024 15.1616C120.991 16.3971 123.115 16.6878 125.238 15.5977ZM71.7553 135.002C71.7553 134.444 71.7468 133.888 71.7375 133.331C71.7205 132.216 71.7027 131.101 71.7553 129.988C71.9124 127.735 74.1935 126.281 76.6317 127.008C77.6539 127.299 78.5979 127.807 79.3841 128.461C81.1932 129.988 82.4513 131.804 83.3954 133.912C84.1034 135.51 84.2605 137.182 83.5524 138.853C82.7663 140.961 81.1932 142.269 78.8339 142.633C76.3957 142.997 74.5076 142.124 73.0924 140.307C71.9124 138.708 71.5193 136.892 71.7553 135.002ZM146.788 49.3913C149.698 48.3012 151.586 45.5396 151.586 42.4872C151.586 39.5076 149.856 37.0367 147.26 36.2372C144.508 35.2924 141.361 36.2372 139.474 38.4175C137.35 40.8884 137.429 45.4669 139.631 47.8652C141.361 49.7547 144.193 50.3361 146.788 49.3913ZM70.4182 68.7954C70.4182 70.0308 70.1032 71.3392 69.3171 72.4295C67.1149 75.6266 62.6316 75.9176 60.0363 73.0107C58.1482 70.9031 57.5981 68.3593 57.6762 65.6705C57.6762 65.0712 57.8095 64.4712 57.9419 63.8719C57.9861 63.6719 58.0302 63.4719 58.0701 63.2719C58.7773 60.2199 61.6875 58.9845 64.7548 60.365C67.9011 61.6733 70.4182 65.4524 70.4182 68.7954ZM101.347 41.4006C101.419 41.1818 101.49 40.9624 101.564 40.7431C101.328 38.7082 100.384 37.1093 98.5756 35.7285C98.4593 35.6365 98.3354 35.5444 98.2106 35.451C97.7436 35.1018 97.2504 34.7337 97.0025 34.275C95.6654 32.0948 91.9682 31.6588 89.6879 34.3477C87.2497 37.2546 87.1707 41.7605 89.6089 44.7402C92.5981 48.3739 97.7886 48.0832 100.227 44.1588C100.737 43.2744 101.041 42.3419 101.347 41.4006ZM143.957 78.2432C143.879 80.8591 142.699 83.1848 140.103 84.7112C136.642 86.8188 132.317 85.5105 130.98 81.9494C129.327 77.662 131.058 73.4468 136.564 71.8475C138.687 71.1941 140.653 71.8475 142.148 73.4468C143.407 74.7551 143.879 76.3537 143.957 78.2432ZM106.297 85.9089C106.412 85.5026 106.528 85.0963 106.676 84.7112C106.519 80.787 101.879 76.3537 97.7097 76.3537C95.1144 76.2807 93.0693 78.0252 93.2272 80.2779C93.3053 81.6592 93.4632 83.0397 93.7773 84.4202C94.2493 86.6008 95.3504 88.4903 97.3956 89.7257C100.306 91.5423 104.002 90.743 105.575 87.8362C105.917 87.2494 106.108 86.578 106.297 85.9089ZM63.6537 29.9872C63.6537 32.4581 62.3175 34.493 60.1144 35.2924C57.9122 36.0919 55.3959 35.5105 53.6657 33.6936C51.3059 31.15 50.598 28.1703 51.3059 24.8999C51.6205 23.6645 52.3286 22.6471 53.3508 21.8476C55.553 20.3215 58.3842 20.8302 59.8792 22.9378C60.3504 23.5918 60.9014 24.2458 61.4515 24.8998C62.9465 26.4987 63.6537 28.0977 63.6537 29.9872ZM24.4628 58.4707C24.3829 58.757 24.3135 59.0065 24.2498 59.2025C24.4071 62.4004 25.115 64.5802 27.1599 66.1788C30.2273 68.6503 34.5531 67.7052 36.0475 64.29C36.9913 62.0365 36.6767 59.9289 35.1037 58.0393C34.4745 57.24 34.0026 56.5137 33.7666 55.5685C33.216 53.5338 31.0138 52.4437 28.7329 53.025C27.2386 53.3884 26.0588 54.3332 25.4296 55.6415C24.9702 56.6494 24.6786 57.6958 24.4628 58.4707ZM72.6994 96.8478C72.6994 98.2283 72.3054 99.6096 71.2833 100.918C69.0811 103.534 65.1487 103.752 62.4745 101.353C59.9573 99.1006 59.2493 95.0312 60.8224 92.1243C61.8454 90.2348 63.6537 89.3625 65.9349 89.6528C66.0138 89.6528 66.0724 89.6716 66.1318 89.6896C66.1904 89.7077 66.2498 89.7257 66.3279 89.7257C70.6542 90.3069 72.6994 92.5597 72.6994 96.8478ZM120.283 104.697V109.275C120.283 110.656 120.755 112.473 122.328 113.926C124.923 116.325 129.013 115.598 130.429 112.546C132.002 109.203 129.17 102.88 125.553 101.499C122.879 100.482 120.283 102.08 120.283 104.697Z" fill="#AAC4E6"/>
</svg>
