<svg width="52" height="50" viewBox="0 0 52 50" fill="none" xmlns="http://www.w3.org/2000/svg">
<path fill-rule="evenodd" clip-rule="evenodd" d="M40.1243 5.64983C40.0518 6.00736 40.0176 6.17671 39.9703 6.40868L39.7376 6.56173C39.6177 7.03586 39.5072 7.49497 39.3848 7.9505C39.2816 8.33497 39.142 8.71134 39.0599 9.09961C38.9685 9.53214 38.8277 9.95017 38.7554 10.3925C38.6907 10.7917 38.7363 11.2381 38.5278 11.5967C38.2845 12.0131 38.4334 12.4788 38.2781 12.9042C38.1345 13.297 38.0645 13.7165 37.9626 14.1232C37.9718 14.1252 38.0339 14.1378 38.1111 14.1539C37.9663 15.4054 37.7898 16.6592 38.0245 17.9902C38.0039 18.0185 37.9351 18.1143 37.8505 18.2318C37.9357 18.2596 38.0134 18.285 38.0936 18.311C38.1639 19.0358 38.2809 19.7696 38.3291 20.4935C38.3881 21.3848 38.6548 22.2515 38.5782 23.1619C38.5397 23.6191 38.6492 24.1169 38.8129 24.5506C38.9135 24.8161 38.7335 24.8688 38.6691 25.0345C38.7668 25.0801 38.8645 25.1261 38.9955 25.1872C39.0511 25.7618 39.1086 26.3533 39.1677 26.9626C39.0182 26.9389 38.9278 26.9243 38.785 26.9016C38.6797 27.1696 38.3586 27.3707 38.6026 27.9195C38.3581 27.7326 38.2068 27.6171 38.0206 27.4749C37.9592 27.8435 37.935 27.9883 37.9044 28.1709C38.0186 28.2249 38.1258 28.2753 38.2436 28.3308C38.2548 28.5014 38.2683 28.6971 38.2808 28.8858C38.2085 28.9186 38.1324 28.9801 38.1009 28.9629C37.8691 28.8326 37.6459 28.6865 37.4217 28.5465C36.9966 28.7265 37.2754 29.0754 37.2207 29.3417C37.158 29.3287 37.0954 29.3155 37.0084 29.2979C36.9454 29.4075 36.8782 29.5241 36.8074 29.6468C36.5452 29.5419 36.298 29.4432 35.9471 29.3028C35.461 28.6726 34.9589 27.901 34.3279 27.2555C34.0023 26.9216 33.7843 26.458 33.4218 26.2377C32.9718 25.9639 32.8901 25.4474 32.5235 25.191C32.1196 24.9079 31.9561 24.4417 31.6115 24.165C31.2332 23.8612 31.0509 23.4082 30.7076 23.1308C29.89 22.4702 29.3315 21.5375 28.41 20.9968C28.2725 20.5766 27.7275 20.425 27.7069 19.928C27.2312 19.7124 26.8949 19.3291 26.5367 18.9688C26.031 18.4601 25.3683 18.1258 24.9519 17.5095C24.834 17.3354 24.5821 17.2519 24.2721 17.0488C24.5489 17.943 24.7861 18.7104 25.0766 19.6491C25.0505 19.7302 24.963 19.9999 24.8747 20.2718C25.0959 20.4609 25.2516 20.5938 25.4174 20.7359C25.6137 21.6406 26.1649 22.531 25.9818 23.5586C26.4413 23.6056 26.4422 24.1042 26.696 24.3102C26.8224 25.451 27.3775 26.3953 27.7729 27.528C27.7683 27.5458 27.7291 27.7 27.6917 27.8466C27.7872 28.2791 28.2061 28.528 28.2142 29.0279C28.2196 29.3904 28.44 29.8015 28.6815 30.0952C28.9762 30.4535 29.1183 30.8959 29.1576 31.2736C29.2065 31.7428 29.538 31.9818 29.6788 32.401C29.6521 32.5065 29.6132 32.6609 29.5591 32.875C30.1552 33.6205 30.5288 34.526 31.0128 35.4C30.9617 35.5456 30.9104 35.6909 30.8445 35.8786L31.3848 36.7C31.1985 36.6765 31.1125 36.6653 30.9331 36.6423C31.2432 37.0272 31.1793 37.406 31.0171 37.8262C30.9145 37.8327 30.7961 37.8403 30.6957 37.847C30.547 38.5224 30.3942 39.216 30.255 39.8488C30.0023 39.928 29.8105 39.9876 29.5629 40.0651C29.497 40.0255 29.3732 39.9512 29.2496 39.8773L29.0619 40.0007C29.0888 40.103 29.1183 40.2157 29.1634 40.3873C28.7134 40.7334 28.2156 40.6593 27.7186 40.5309C27.4106 40.2003 27.4106 40.2003 26.7796 40.2521C26.9902 40.3611 27.07 40.4024 27.1941 40.4669C27.134 40.5329 27.0661 40.6083 26.9713 40.7124C26.8261 40.5506 26.7072 40.4176 26.5593 40.2531C26.5213 40.3681 26.4957 40.4444 26.4769 40.5009C25.8802 40.4743 25.2822 40.4476 24.6121 40.4175L24.3775 40.0609C24.3362 40.2021 24.3117 40.2846 24.279 40.3967C24.1858 40.3242 24.0981 40.2556 23.9822 40.1651L23.6429 40.3884C23.4705 40.3528 23.3457 40.3267 23.22 40.3009C23.2505 40.0311 23.0931 39.7298 23.3559 39.4958C22.8306 39.4748 22.8928 39.9058 22.7734 40.2848C22.6552 40.1353 22.563 40.0188 22.4665 39.8963C22.0061 39.9138 21.548 39.835 21.0867 40.1196C20.7018 40.3573 20.2689 40.1049 19.8681 39.8303C19.8257 39.9457 19.8001 40.0156 19.7496 40.1549C19.627 40.0302 19.5186 39.9192 19.3806 39.7777C19.3461 39.8079 19.2952 39.8528 19.1435 39.9854C18.8347 39.9743 18.3889 39.875 17.9833 39.9629C17.4058 40.0882 16.9205 39.686 16.3312 39.8241C15.8144 39.9452 15.2561 39.9034 14.698 39.8155C13.9369 39.6959 13.1475 39.7572 12.3141 39.7398L12.6032 40.1793C12.7032 40.1648 12.8471 40.1443 13.0435 40.1165C13.0471 40.2846 13.05 40.4316 13.0542 40.6075C13.3071 40.7327 13.5635 40.8928 13.8422 40.9876C14.0756 41.0672 14.2783 41.3439 14.574 41.148C14.6938 41.5041 15.0263 41.5194 15.3176 41.5828C15.299 41.6716 15.2861 41.734 15.2761 41.7826C16.3423 42.0181 17.273 42.5416 18.1726 43.1366C18.5176 43.1993 18.8624 43.2619 19.2039 43.3243L19.3787 43.5899C19.8643 43.7772 20.2867 43.94 20.7674 44.125C20.6656 44.3246 20.5934 44.4664 20.5003 44.6493C20.782 44.7927 21.0469 44.9273 21.2924 45.0521C21.467 44.864 21.618 44.7019 21.7673 44.541C22.3995 44.8091 22.9796 45.055 23.7215 45.3696C23.3644 45.503 23.1765 45.396 22.9621 45.375C22.9758 45.8189 23.3651 45.6647 23.5739 45.7748C23.5688 45.8905 23.5628 46.0056 23.5509 46.2521C23.7262 46.1923 23.8903 46.1366 24.0544 46.0808C24.0415 46.1478 24.0287 46.2147 24.0162 46.2814C24.0792 46.1537 24.142 46.0261 24.2117 45.8855C24.4574 46.0287 24.6602 46.1469 24.86 46.2638C24.8433 46.385 24.8307 46.4771 24.8168 46.5763C24.8999 46.597 24.9879 46.6195 25.1019 46.6481C25.2929 46.4639 25.4966 46.2684 25.6817 46.0898C26.4848 46.4846 27.2485 46.8605 28.0127 47.2362C28.0049 47.2725 27.9976 47.3089 27.9901 47.3446C27.8987 47.3407 27.8075 47.3371 27.5817 47.3278C27.9222 47.6835 28.2031 47.9768 28.5296 48.3176C28.282 48.6106 28.053 48.8812 27.7204 49.2738C27.7188 49.2913 27.7029 49.4807 27.6825 49.7209C26.6302 49.2591 25.5589 49.056 24.5207 48.7827C23.0839 48.4042 21.7572 47.7664 20.3605 47.3017C18.9063 46.8181 17.5155 46.1411 16.0953 45.5531C15.2868 45.2179 14.4672 44.9077 13.6653 44.5568C12.5397 44.0641 11.404 43.5873 10.3185 43.0167C9.84028 42.7652 9.29839 42.7016 8.84568 42.3474C8.45706 42.0434 7.91052 41.9395 7.43174 41.7523C6.20919 41.2741 5.00209 40.7605 3.72633 40.4208C2.89545 40.2001 2.09307 39.8698 1.15876 39.5475L0.529264 38.5907C0.756487 38.4306 0.947172 38.176 1.36903 38.2638C1.25394 38.0377 1.1462 37.8266 1.04442 37.6271C1.44868 36.8123 2.11199 36.2812 3.00329 35.8413C3.1065 35.8812 3.31299 35.9608 3.69149 36.1062C3.735 36.1365 3.95125 36.2867 4.21077 36.4675C4.4024 36.2118 4.54633 36.0198 4.68193 35.8388C5.10946 35.8623 5.53972 35.8567 5.95999 35.9178C6.31819 35.9696 6.73337 35.6774 7.00779 36.2155C7.04867 36.0198 7.06131 35.9571 7.08562 35.8405C7.4727 36.1179 7.99694 35.6396 8.33833 36.1432C8.48977 36.0676 8.62564 35.9996 8.78644 35.919C8.84517 35.9751 8.90969 36.0367 8.98112 36.105C10.1719 35.8406 11.3742 36.0303 12.5985 36.1357C12.6573 36.0971 12.736 36.0023 12.8179 35.9989C13.1489 35.9857 13.5663 35.8774 13.7933 36.0336C14.1618 36.2879 14.6678 35.9285 14.9346 36.4096C15.1358 36.2932 15.3224 36.1852 15.5222 36.0692C15.6134 36.1368 15.7081 36.2071 15.8239 36.293C15.9209 36.2363 16.0272 36.174 16.1917 36.0784C16.4971 36.1498 16.8522 36.2327 17.2724 36.3308C17.1485 36.534 17.0752 36.6537 16.9735 36.8196C17.2633 36.8218 17.5246 36.8236 17.7863 36.8254C17.8335 36.7231 17.8802 36.6213 17.9544 36.4584C18.1144 36.5358 18.2541 36.6413 18.4068 36.6655C18.5402 36.6866 18.6884 36.6162 18.8277 36.5868C18.8648 36.4954 18.9095 36.3848 18.9858 36.197C19.1518 36.2784 19.2935 36.3485 19.5323 36.4658C19.5508 36.5248 19.6122 36.7184 19.6818 36.9387L20.0064 36.7251C20.3316 36.9022 20.5574 37.0285 20.9589 36.8717C21.6413 36.605 22.412 36.6338 23.1471 36.558C23.2598 36.5462 23.3879 36.6866 23.5074 36.7562C23.5371 36.6588 23.5619 36.578 23.5592 36.5862C23.9692 36.638 24.3591 36.6324 24.71 36.7467C25.0668 36.8625 25.3856 37.0968 25.8056 37.3257C26.0276 37.2819 25.9626 37.0831 25.5885 36.7071C25.9975 36.8395 26.1349 36.8838 26.3014 36.938C26.3173 37.0715 26.3337 37.2089 26.3647 37.4705C26.5297 37.2382 26.6406 37.0823 26.7655 36.9063C26.8437 36.9112 26.934 36.9162 27.0813 36.925C27.1019 36.804 27.1949 36.607 27.1367 36.5383C26.852 36.2028 26.8457 35.8126 26.8133 35.4505C26.2736 34.9653 26.2591 34.2383 25.9621 33.6538C25.6345 33.0106 25.3347 32.3399 25.1397 31.6482C24.9524 30.986 24.7792 30.3037 24.4642 29.7136C24.1296 29.0873 23.9869 28.4071 23.7035 27.7711C23.4146 27.1227 23.2159 26.4272 23.0449 25.7354C22.8806 25.0685 22.5615 24.4614 22.4053 23.7851C22.2465 23.0978 22.0289 22.3996 21.7553 21.7491C21.4842 21.1042 21.4143 20.4228 21.1862 19.7765C20.9588 19.1327 20.7618 18.4769 20.5846 17.8173C20.4005 17.1327 20.262 16.4359 20.0929 15.747C19.9305 15.0849 19.7544 14.4257 19.5699 13.7095C19.6183 13.4753 19.6818 13.1657 19.7449 12.8603C19.8259 12.8722 19.9182 12.8852 20.0013 12.8975C20.3603 12.6967 20.1632 12.4041 20.148 12.1852C20.4505 11.8952 20.7336 11.6235 21.0396 11.33C21.087 11.338 21.18 11.3534 21.2662 11.3678C21.4389 10.7179 21.9835 10.7679 22.453 10.7988C22.9271 10.8304 23.3931 10.9783 23.8953 11.0819C24.5111 11.7825 25.5774 12.0406 25.9199 13.0768C26.0543 13.0234 26.1373 12.9902 26.2763 12.9346C26.6656 13.3569 27.0771 13.8038 27.543 14.3097C27.5652 14.3031 27.6742 14.2705 27.7551 14.2464C28.1711 14.61 28.5841 14.9531 28.9742 15.3208C29.1274 15.4654 29.3255 15.6595 29.3349 15.8402C29.3592 16.2995 29.5428 16.5752 29.9526 16.7791C30.1409 16.8729 30.2518 17.1207 30.5029 17.2202L30.0895 16.5918C30.2158 16.5739 30.2995 16.5483 30.3073 16.5634C30.5452 17.008 30.9592 17.29 31.3327 17.5838C31.6475 17.8313 31.9382 18.1511 31.9603 18.4669C31.9891 18.8765 32.2853 19.0511 32.4121 19.5323C32.4988 19.3052 32.5241 19.2393 32.5496 19.1724C33.1673 19.4467 33.3826 19.589 33.4439 20.0833C33.4928 20.4788 33.7711 20.6518 34.0217 20.886C33.9058 20.6574 33.7899 20.4289 33.5907 20.0359C34.0418 20.4817 34.3586 20.7948 34.8054 21.2366C34.5433 19.5945 34.7154 18.1209 34.725 16.6468C34.7347 15.1453 34.8579 14.3689 35.2526 13.1883C35.324 12.9737 35.258 12.7162 35.3142 12.4932C35.4122 12.1072 35.5889 11.7392 35.6709 11.3507C35.7459 10.994 35.685 10.6051 35.7794 10.256C36.03 9.33229 36.433 8.45423 36.6233 7.50867C36.6419 7.41603 36.8095 7.35291 36.9193 7.26761C36.9149 7.10808 36.8551 6.9121 36.9144 6.76362C37.2043 6.038 37.4794 5.30008 37.8515 4.61626C38.1473 4.07273 38.3985 3.50593 38.7434 2.97633C39.0839 2.45309 39.5546 2.09626 39.9403 1.64974C40.3394 1.18798 40.9554 0.975132 41.6244 0.876338C41.509 1.7622 42.4765 1.88872 42.8178 2.48163C42.662 2.19939 42.506 1.91688 42.35 1.63436C42.3944 1.60901 42.4392 1.58373 42.4835 1.55831L42.8324 2.08861C42.9379 2.24897 43.0408 2.41112 43.1493 2.5691C43.2715 2.7459 43.3485 2.97938 43.6285 2.96734C43.4576 3.22201 43.8619 3.23255 43.823 3.40165C43.7537 3.70531 44.2074 3.52929 44.1711 3.82342C44.1513 3.98581 44.2375 4.1745 44.3156 4.33158C44.4121 4.52558 44.5497 4.69894 44.6585 4.86433C44.5559 4.99884 44.4846 5.0925 44.3715 5.24055C44.5449 5.19632 44.6544 5.16843 44.807 5.12912C44.8703 5.20916 44.9449 5.30352 45.0669 5.45814C45.0146 5.71318 44.9524 6.01542 44.8966 6.28701C44.9976 6.42389 45.0706 6.52269 45.1373 6.61319C45.2779 6.57999 45.3924 6.55305 45.5507 6.51546C45.458 6.66944 45.387 6.7873 45.3162 6.90544L45.4317 7.08112C45.5664 7.06195 45.7105 7.04169 45.8693 7.01885C46.0227 7.57833 46.0909 8.14894 46.4342 8.64449C46.5894 8.86899 46.5755 9.2106 46.6451 9.53069C46.6394 9.52849 46.6932 9.54695 46.7755 9.57538C46.933 10.0496 47.0964 10.5411 47.2975 11.1467C47.0419 11.0661 46.8713 11.0121 46.7125 10.9621C46.8448 11.2412 46.9759 11.3974 47.2495 11.5941C47.2476 11.6244 47.249 11.6551 47.2439 11.6853C47.2327 11.7482 47.2186 11.8106 47.2032 11.8839C47.2659 11.894 47.3283 11.9026 47.3901 11.9145C47.4201 11.9205 47.4491 11.9325 47.4807 11.9429C47.5508 12.199 47.6212 12.457 47.7137 12.796L47.0093 13.2595C47.0154 13.3072 47.0219 13.3547 47.0284 13.4026C47.1725 13.4021 47.3167 13.4011 47.5217 13.4005C47.5587 13.3307 47.6238 13.207 47.7483 12.972C47.9004 13.403 48.0249 13.7547 48.1453 14.0964C48.0625 14.1816 48.0001 14.2454 47.9353 14.312C48.4749 14.5358 48.4488 14.9785 48.4139 15.4341C48.403 15.5794 48.423 15.7341 48.4632 15.8744C48.5528 16.1892 48.6641 16.4978 48.7881 16.8724C48.7804 16.8813 48.7231 16.9489 48.6048 17.089C48.7126 17.2311 48.8419 17.4015 49.0478 17.6722C49.056 17.6016 49.0219 17.6897 49.0405 17.7641C49.1911 18.3672 49.413 18.9515 49.5138 19.5679C49.5234 19.626 49.5785 19.6747 49.5988 19.7324C49.7304 20.109 49.4102 20.5276 49.6923 20.8853C49.9414 21.2013 49.8141 21.5848 49.91 21.9282C50.0133 22.2977 50.0821 22.6767 50.1594 23.0526C50.1834 23.1685 50.1644 23.2964 50.2052 23.4039C50.2492 23.5206 50.3397 23.6197 50.4419 23.775C50.3923 23.9146 50.3292 24.0938 50.282 24.2263L50.6395 24.7698C50.5139 25.3125 50.3778 25.8595 50.7659 26.3661C50.8005 26.4111 50.8363 26.4847 50.8236 26.5319C50.6064 27.3297 51.0801 28.0497 51.0704 28.8373C51.0612 29.5968 51.3044 30.356 51.3606 31.1209C51.4354 32.1341 51.4373 33.1523 51.4649 34.1687C51.4678 34.262 51.4503 34.3678 51.4067 34.4487C50.9999 35.2054 50.585 35.9578 50.2117 36.6407C49.7676 36.8235 49.4024 36.9736 48.933 37.1667C48.7694 37.09 48.5006 36.9637 48.2395 36.8413C48.123 36.3034 47.9842 35.7878 47.9061 35.2629C47.8277 34.7354 47.7705 34.198 47.7734 33.6657C47.779 32.5003 47.5236 31.3635 47.4451 30.2097C47.3986 29.5268 47.148 28.8566 47.3071 28.1605C46.9363 27.055 46.8841 25.8956 46.6978 24.7584C46.6172 24.2667 46.6096 23.7574 46.4477 23.2721C46.298 22.8251 46.2188 22.3548 46.1067 21.8952C45.7574 20.4583 45.4146 19.0203 45.0545 17.5862C44.867 16.8395 44.6628 16.0959 44.4407 15.3585C44.2169 14.6158 43.911 13.884 43.7247 13.1474C43.3983 11.8565 42.7326 10.7111 42.3615 9.4445C42.1657 8.7757 41.7352 8.16996 41.3718 7.55877C41.0182 6.96301 40.6154 6.3963 40.1243 5.64983Z" fill="#004DB3"/>
</svg>
