<svg width="37" height="10" viewBox="0 0 37 10" fill="none" xmlns="http://www.w3.org/2000/svg">
<path d="M33.1237 2.36201C34.2811 2.36201 34.9733 3.18513 34.9733 4.53335V9.15356H36.5454V4.4277C36.5454 2.13494 35.4653 0.805648 33.4343 0.805648C32.6396 0.805648 31.3781 1.02326 30.626 2.48501C30.4512 2.05385 30.1629 1.6781 29.7917 1.39767C29.4205 1.11725 28.9802 0.942631 28.5177 0.892376C28.2266 0.839065 27.9301 0.82159 27.6347 0.84034C26.9882 0.892376 25.8371 1.29448 25.4067 2.2059V0.98068H23.833V9.15356H25.4067V4.74307C25.4067 3.02745 26.5294 2.36201 27.6536 2.36201C28.707 2.36201 29.3992 3.16779 29.3992 4.51601V9.15356H30.9634V4.74307C30.9634 3.37751 31.7834 2.34624 33.1237 2.36201ZM18.057 7.788C18.7761 7.80376 19.4699 7.51677 19.9729 6.99641C20.4775 6.47605 20.7455 5.76803 20.7187 5.0411C20.7187 3.39486 19.5077 2.36201 18.057 2.36201C16.6048 2.36201 15.3953 3.39486 15.3953 5.0411C15.3669 5.76646 15.635 6.47289 16.1364 6.99168C16.6379 7.51204 17.3285 7.80061 18.0444 7.788H18.057ZM18.057 9.32071C15.758 9.32071 13.839 7.62243 13.839 5.03164C13.839 2.44085 15.758 0.796188 18.057 0.796188C20.356 0.796188 22.2908 2.44085 22.2908 5.03164C22.2908 7.62243 20.345 9.32859 18.046 9.32859L18.057 9.32071ZM5.74194 5.03164L5.72617 5.0411C5.72617 2.45032 7.69564 0.805649 10.0104 0.796188C10.5919 0.784937 11.1693 0.895898 11.7053 1.12189C12.2412 1.34789 12.7237 1.68388 13.1215 2.10814L11.9294 3.12364C11.6762 2.875 11.3763 2.67899 11.0469 2.54691C10.7175 2.41483 10.3653 2.34931 10.0104 2.35413C8.55975 2.35413 7.29828 3.38697 7.29828 5.03164C7.29828 6.14333 7.95896 7.14464 8.97287 7.57039C9.98677 7.99614 11.1536 7.75961 11.9294 6.97433L13.1389 7.98983C12.7397 8.41845 12.255 8.75841 11.7161 8.98768C11.1771 9.21695 10.596 9.33041 10.0104 9.32071C7.71299 9.32071 5.74194 7.62243 5.74194 5.03164ZM0.707105 7.58458C0.705439 7.4417 0.73193 7.29988 0.785074 7.16724C0.838218 7.03459 0.916975 6.91371 1.01684 6.81151C1.1167 6.7093 1.23571 6.62777 1.36709 6.57156C1.49846 6.51536 1.63962 6.48558 1.78251 6.48393C1.92539 6.48558 2.06655 6.51536 2.19792 6.57156C2.3293 6.62777 2.44831 6.7093 2.54817 6.81151C2.64804 6.91371 2.72679 7.03459 2.77994 7.16724C2.83308 7.29988 2.85957 7.4417 2.85791 7.58458C2.84387 7.86131 2.72478 8.12225 2.52494 8.31418C2.3251 8.50611 2.05957 8.61457 1.78251 8.61742C1.50544 8.61457 1.23991 8.50611 1.04007 8.31418C0.840229 8.12225 0.721145 7.86131 0.707105 7.58458Z" fill="white"/>
</svg>
