<svg width="123" height="29" viewBox="0 0 123 29" fill="none" xmlns="http://www.w3.org/2000/svg">
<path d="M0.401367 2.32966H8.33512C13.3931 2.32966 17.5714 5.25272 17.5714 11.9267V13.3291C17.5714 20.0539 13.6638 23.0783 8.48737 23.0783H0.401367V2.32966ZM4.83344 6.09753V19.2935H8.23362C11.1094 19.2935 13.0379 17.418 13.0379 13.2447V12.1464C13.0379 7.97302 11.0079 6.09753 8.08138 6.09753H4.83344ZM19.9228 6.30029H23.4752L24.0504 10.2033C24.727 7.55061 26.4525 6.13133 29.582 6.13133H30.6816V10.6088H28.8546C25.2514 10.6088 24.3718 11.8592 24.3718 15.4074V23.129H19.9905V6.30029H19.9228ZM31.5612 15.0526V14.5795C31.5612 8.953 35.1644 5.87788 40.0701 5.87788C45.0774 5.87788 48.579 8.953 48.579 14.5795V15.0526C48.579 20.5776 45.1789 23.5514 40.0701 23.5514C34.64 23.5007 31.5612 20.5945 31.5612 15.0526ZM44.0962 15.0019V14.5795C44.0962 11.4537 42.523 9.57817 40.0194 9.57817C37.5665 9.57817 35.9426 11.3016 35.9426 14.5795V15.0019C35.9426 18.0263 37.5158 19.7497 40.0194 19.7497C42.523 19.699 44.0962 18.0263 44.0962 15.0019ZM50.8797 6.30029H54.5336L54.9565 9.47679C55.8362 7.34786 57.7139 5.87788 60.4881 5.87788C64.768 5.87788 67.593 8.953 67.593 14.647V15.1201C67.593 20.6452 64.4635 23.5683 60.4881 23.5683C57.8323 23.5683 56.0053 22.3686 55.1087 20.4425V28.9413H50.8289L50.8797 6.30029ZM63.144 15.0019V14.6302C63.144 11.2847 61.4185 9.62885 59.1179 9.62885C56.665 9.62885 55.0411 11.5043 55.0411 14.6302V14.9512C55.0411 17.9249 56.6143 19.8004 59.0672 19.8004C61.5877 19.7497 63.144 18.1446 63.144 15.0019ZM74.0719 20.0201L73.6998 23.0952H69.9444V0.673828H74.2242V9.27403C75.1715 7.07752 77.0492 5.87788 79.7051 5.87788C83.7312 5.92857 86.7084 8.69956 86.7084 14.2753V14.7991C86.7084 20.3749 83.8834 23.5683 79.6036 23.5683C76.7786 23.5007 74.9516 22.1997 74.0719 20.0201ZM82.2087 14.7991V14.3767C82.2087 11.3016 80.534 9.57817 78.1826 9.57817C75.7805 9.57817 74.1058 11.5043 74.1058 14.4274V14.7991C74.1058 17.9249 75.7297 19.7497 78.1319 19.7497C80.7031 19.7497 82.2087 18.1446 82.2087 14.7991ZM88.5862 15.0526V14.5795C88.5862 8.953 92.1893 5.87788 97.0951 5.87788C102.102 5.87788 105.604 8.953 105.604 14.5795V15.0526C105.604 20.5776 102.153 23.5514 97.0951 23.5514C91.6649 23.5007 88.5862 20.5945 88.5862 15.0526ZM101.155 15.0019V14.5795C101.155 11.4537 99.5818 9.57817 97.0781 9.57817C94.6253 9.57817 93.0013 11.3016 93.0013 14.5795V15.0019C93.0013 18.0263 94.5745 19.7497 97.0781 19.7497C99.5987 19.699 101.155 18.0263 101.155 15.0019ZM111.339 14.3767L105.435 6.30029H110.493L113.893 11.3523L117.344 6.30029H122.351L116.363 14.326L122.673 23.0952H117.716L113.859 17.5194L110.104 23.0952H104.927L111.339 14.3767Z" fill="white"/>
</svg>
