<svg width="21" height="22" viewBox="0 0 21 22" fill="none" xmlns="http://www.w3.org/2000/svg">
<path d="M15.1772 13.2647C14.3345 14.6551 12.5948 15.6911 10.6375 15.6911C7.94637 15.6911 5.77168 13.51 5.77168 10.811C5.77168 8.11198 7.94637 5.93094 10.6375 5.93094C12.5948 5.93094 14.3345 7.02146 15.1772 8.43913V13.2647ZM15.1772 0.996347V3.3137C14.2258 1.70518 11.8608 0.587402 9.38709 0.587402C4.27659 0.587402 0.253418 5.11305 0.253418 10.7837C0.253418 16.4544 4.27659 21.0346 9.38709 21.0346C11.8608 21.0346 14.2258 19.9168 15.1772 18.3083V20.6257H20.9945V0.996347H15.1772Z" fill="white"/>
</svg>
