<svg width="17" height="22" viewBox="0 0 17 22" fill="none" xmlns="http://www.w3.org/2000/svg">
<path d="M0.233398 18.5537L1.91878 14.6278C3.74008 15.991 6.15941 16.6998 8.55157 16.6998C10.3185 16.6998 11.433 16.0182 11.433 14.9822C11.4058 12.0924 0.85862 14.3552 0.77707 7.10325C0.749886 3.42275 4.01191 0.587402 8.63311 0.587402C11.3787 0.587402 14.1242 1.26898 16.0814 2.82297L14.5048 6.83062C12.7106 5.68557 10.4816 4.86769 8.36128 4.86769C6.92055 4.86769 5.96913 5.54926 5.96913 6.42167C5.99631 9.25702 16.6251 7.70303 16.7338 14.6278C16.7338 18.3901 13.5533 21.0346 8.9865 21.0346C5.64292 21.0346 2.57118 20.244 0.233398 18.5537Z" fill="white"/>
</svg>
