<svg width="128" height="38" viewBox="0 0 128 38" fill="none" xmlns="http://www.w3.org/2000/svg">
<path fill-rule="evenodd" clip-rule="evenodd" d="M127.009 10.5907H121.409L117.484 20.7094L113.58 10.5907H107.981L114.788 26.5801L110.554 37.1514H116.113L127.009 10.5907ZM92.9552 19.4842C92.9552 22.0387 95.188 23.7197 97.3814 23.7197C99.5369 23.7197 101.655 22.1554 101.655 19.4826C101.655 16.8099 99.5369 15.244 97.3814 15.244C95.188 15.244 92.9552 16.9281 92.9552 19.4842ZM101.655 28.4124V26.3893C100.519 28.1081 97.8702 28.7577 96.5109 28.7577C92.0107 28.7577 87.5088 25.2098 87.5088 19.4826C87.5088 13.757 92.0091 10.2091 96.5109 10.2091C97.6447 10.2091 100.294 10.5876 101.655 12.5744V10.597H106.874V28.4156L101.655 28.4124ZM86.0234 28.4124H80.8041V26.1985C79.9321 27.8384 77.8176 28.794 75.6226 28.794C71.0829 28.794 67.073 25.1688 67.073 19.5552C67.073 13.8359 71.0829 10.206 75.6226 10.206C77.8144 10.206 79.9353 11.1205 80.8041 12.762V0.883545H86.0234V28.4124ZM80.6906 19.4432C80.6906 16.772 78.7621 15.2062 76.6066 15.2062C74.3738 15.2062 72.5194 16.8855 72.5194 19.4432C72.5194 22.0829 74.3738 23.7544 76.605 23.7544C78.8015 23.7575 80.6906 22.0009 80.6906 19.4432ZM54.1682 18.9828C54.1682 16.2737 55.5684 15.3576 57.4212 15.3576C59.1983 15.3576 60.485 16.5402 60.485 18.9055V28.4093H65.7422V17.7623C65.7422 12.6879 63.2445 10.206 59.2724 10.206C57.1926 10.206 55.1127 11.3886 54.1666 13.1831V10.5907H48.9126V28.4093H54.1682V18.9828ZM38.2374 28.7152C33.2452 28.7152 29.0808 25.0521 29.0808 19.4416C29.0808 13.828 33.2405 10.2012 38.2374 10.2012C43.2344 10.2012 47.4304 13.828 47.4304 19.4416C47.4304 25.0553 43.2297 28.7152 38.2374 28.7152ZM38.2374 23.5273C40.4292 23.5273 42.2473 21.922 42.2473 19.4432C42.2473 17.0385 40.4308 15.397 38.2374 15.397C37.7093 15.3887 37.185 15.4881 36.6965 15.6889C36.208 15.8898 35.7655 16.188 35.396 16.5654C35.0243 16.9449 34.7327 17.3951 34.5384 17.8895C34.3442 18.3839 34.2514 18.9122 34.2654 19.4432C34.267 21.9252 36.0819 23.5273 38.2374 23.5273ZM19.656 15.3591C21.206 15.3591 22.5684 16.5812 22.5684 18.9071V28.4124H27.7878V18.2921C27.7878 12.9119 25.1718 10.2028 20.979 10.2028C19.7333 10.2028 17.387 10.5812 15.684 13.3691C14.7 11.3082 12.8094 10.2391 10.0153 10.2391C9.04515 10.2341 8.09415 10.5087 7.27595 11.0299C6.45775 11.5512 5.80698 12.297 5.40143 13.1783V10.5923H0.141113V28.4108H5.3967V18.9828C5.3967 16.2737 6.87262 15.3576 8.46049 15.3576C9.97426 15.3576 11.3335 16.5402 11.3729 18.792V28.4108H16.6301V18.9828C16.6301 16.392 17.9925 15.3591 19.656 15.3591Z" fill="white"/>
</svg>
