<svg width="64" height="64" viewBox="0 0 64 64" fill="none" xmlns="http://www.w3.org/2000/svg">
<path d="M57.1644 18.7092C59.3815 22.7545 60.6431 27.3969 60.6431 32.3352C60.6431 42.8138 54.9644 51.9622 46.5203 56.8854L55.1954 31.803C56.8157 27.7509 57.3553 24.5109 57.3553 21.6299C57.3553 20.5842 57.2864 19.6138 57.1644 18.7092ZM36.1551 19.0184C37.865 18.9285 39.4058 18.7486 39.4058 18.7486C40.9362 18.5674 40.7557 16.3183 39.2246 16.4079C39.2246 16.4079 34.624 16.7689 31.6541 16.7689C28.8634 16.7689 24.1738 16.4079 24.1738 16.4079C22.6421 16.3183 22.4626 18.658 23.9936 18.7486C23.9936 18.7486 25.4425 18.9285 26.9729 19.0184L31.3977 31.1431L25.1811 49.7846L14.8385 19.0184C16.5498 18.9285 18.0889 18.7486 18.0889 18.7486C19.6183 18.5674 19.4378 16.3183 17.9074 16.4079C17.9074 16.4079 13.3078 16.7689 10.3375 16.7689C9.80467 16.7689 9.17652 16.7559 8.5096 16.7345C13.5883 9.0242 22.3175 3.9325 32.2408 3.9325C39.6348 3.9325 46.3676 6.75966 51.4205 11.3897C51.2981 11.3823 51.1788 11.367 51.0528 11.367C48.2627 11.367 46.283 13.7973 46.283 16.4079C46.283 18.7486 47.6336 20.729 49.0731 23.0694C50.1532 24.9612 51.4148 27.3912 51.4148 30.9027C51.4148 33.3334 50.4798 36.1545 49.2536 40.0846L46.4197 49.5502L36.1551 19.0184ZM32.2408 60.7402C29.4527 60.7402 26.762 60.3313 24.2166 59.5829L32.7396 34.8197L41.4694 58.7384C41.5269 58.8788 41.5975 59.0082 41.6727 59.1299C38.7205 60.1692 35.5483 60.7402 32.2408 60.7402ZM3.83811 32.3352C3.83811 28.2173 4.72132 24.3083 6.29754 20.7761L19.8463 57.8973C10.3706 53.294 3.83811 43.5776 3.83811 32.3352ZM32.2408 0.744965C14.8215 0.744965 0.649902 14.9162 0.649902 32.3352C0.649902 49.7548 14.8215 63.9277 32.2408 63.9277C49.6597 63.9277 63.832 49.7548 63.832 32.3352C63.832 14.9162 49.6597 0.744965 32.2408 0.744965Z" fill="#3F3C3C"/>
</svg>
